<?xml version="1.0" encoding="UTF-8"?><svg xmlns="http://www.w3.org/2000/svg" xmlns:xlink="http://www.w3.org/1999/xlink" fill-opacity="1" color-rendering="auto" color-interpolation="auto" text-rendering="auto" stroke="black" stroke-linecap="square" width="2102" stroke-miterlimit="10" shape-rendering="auto" stroke-opacity="1" fill="black" stroke-dasharray="none" font-weight="normal" stroke-width="1" height="1500" font-family="'Dialog'" font-style="normal" stroke-linejoin="miter" font-size="12" stroke-dashoffset="0" image-rendering="auto">
  <!--Generated by ySVG 2.5-->
  <defs id="genericDefs"/>
  <g>
    <defs id="defs1">
      <clipPath clipPathUnits="userSpaceOnUse" id="clipPath1">
        <path d="M0 0 L2102 0 L2102 1500 L0 1500 L0 0 Z"/>
      </clipPath>
      <clipPath clipPathUnits="userSpaceOnUse" id="clipPath2">
        <path d="M11 81 L1088.6254 81 L1088.6254 850 L11 850 L11 81 Z"/>
      </clipPath>
    </defs>
    <g fill="white" text-rendering="geometricPrecision" shape-rendering="geometricPrecision" transform="scale(1.9506,1.9506) translate(-11,-81)" stroke="white">
      <rect x="11" width="1078" height="770" y="81" clip-path="url(#clipPath2)" stroke="none"/>
    </g>
    <g fill="white" text-rendering="geometricPrecision" shape-rendering="geometricPrecision" transform="matrix(1.9506,0,0,1.9506,-21.4564,-157.9974)" stroke="white">
      <circle r="45" clip-path="url(#clipPath2)" cx="678.5" cy="281.5" stroke="none"/>
    </g>
    <g text-rendering="geometricPrecision" stroke-miterlimit="1.45" shape-rendering="geometricPrecision" font-family="sans-serif" transform="matrix(1.9506,0,0,1.9506,-21.4564,-157.9974)" stroke-linecap="butt">
      <text x="654.1543" xml:space="preserve" y="286.2139" clip-path="url(#clipPath2)" stroke="none">Message</text>
      <circle fill="none" stroke-dasharray="6,2" r="45" clip-path="url(#clipPath2)" cx="678.5" cy="281.5"/>
    </g>
    <g fill="white" text-rendering="geometricPrecision" shape-rendering="geometricPrecision" transform="matrix(1.9506,0,0,1.9506,-21.4564,-157.9974)" stroke="white">
      <circle r="45" clip-path="url(#clipPath2)" cx="352.5" cy="146" stroke="none"/>
    </g>
    <g text-rendering="geometricPrecision" stroke-miterlimit="1.45" shape-rendering="geometricPrecision" font-family="sans-serif" transform="matrix(1.9506,0,0,1.9506,-21.4564,-157.9974)" stroke-linecap="butt">
      <text x="341.4961" xml:space="preserve" y="150.7139" clip-path="url(#clipPath2)" stroke="none">Port</text>
      <circle fill="none" r="45" clip-path="url(#clipPath2)" cx="352.5" cy="146"/>
    </g>
    <g fill="white" text-rendering="geometricPrecision" shape-rendering="geometricPrecision" transform="matrix(1.9506,0,0,1.9506,-21.4564,-157.9974)" stroke="white">
      <circle r="45" clip-path="url(#clipPath2)" cx="507.5" cy="146" stroke="none"/>
    </g>
    <g text-rendering="geometricPrecision" stroke-miterlimit="1.45" shape-rendering="geometricPrecision" font-family="sans-serif" transform="matrix(1.9506,0,0,1.9506,-21.4564,-157.9974)" stroke-linecap="butt">
      <text x="480.8252" xml:space="preserve" y="150.7139" clip-path="url(#clipPath2)" stroke="none">ClientImpl</text>
      <circle fill="none" r="45" clip-path="url(#clipPath2)" cx="507.5" cy="146"/>
    </g>
    <g fill="white" text-rendering="geometricPrecision" shape-rendering="geometricPrecision" transform="matrix(1.9506,0,0,1.9506,-21.4564,-157.9974)" stroke="white">
      <ellipse rx="51.5" ry="49.25" clip-path="url(#clipPath2)" cx="971" cy="146" stroke="none"/>
    </g>
    <g text-rendering="geometricPrecision" stroke-miterlimit="1.45" shape-rendering="geometricPrecision" font-family="sans-serif" transform="matrix(1.9506,0,0,1.9506,-21.4564,-157.9974)" stroke-linecap="butt">
      <text x="942.3184" xml:space="preserve" y="143.3633" clip-path="url(#clipPath2)" stroke="none">Interceptor</text>
      <text x="955.3232" xml:space="preserve" y="158.0645" clip-path="url(#clipPath2)" stroke="none">Chain</text>
      <ellipse rx="51.5" fill="none" ry="49.25" clip-path="url(#clipPath2)" cx="971" cy="146"/>
    </g>
    <g fill="white" text-rendering="geometricPrecision" shape-rendering="geometricPrecision" transform="matrix(1.9506,0,0,1.9506,-21.4564,-157.9974)" stroke="white">
      <ellipse rx="51.5" ry="49.25" clip-path="url(#clipPath2)" cx="971" cy="456.25" stroke="none"/>
    </g>
    <g text-rendering="geometricPrecision" stroke-miterlimit="1.45" shape-rendering="geometricPrecision" font-family="sans-serif" transform="matrix(1.9506,0,0,1.9506,-21.4564,-157.9974)" stroke-linecap="butt">
      <text x="950.3193" xml:space="preserve" y="460.9639" clip-path="url(#clipPath2)" stroke="none">Conduit</text>
      <ellipse rx="51.5" fill="none" ry="49.25" clip-path="url(#clipPath2)" cx="971" cy="456.25"/>
    </g>
    <g fill="white" text-rendering="geometricPrecision" shape-rendering="geometricPrecision" transform="matrix(1.9506,0,0,1.9506,-21.4564,-157.9974)" stroke="white">
      <ellipse rx="51.5" ry="49.25" clip-path="url(#clipPath2)" cx="971" cy="624" stroke="none"/>
    </g>
    <g text-rendering="geometricPrecision" stroke-miterlimit="1.45" shape-rendering="geometricPrecision" font-family="sans-serif" transform="matrix(1.9506,0,0,1.9506,-21.4564,-157.9974)" stroke-linecap="butt">
      <text x="928.3174" xml:space="preserve" y="628.7139" clip-path="url(#clipPath2)" stroke="none">AsyncHttpClient</text>
      <ellipse rx="51.5" fill="none" ry="49.25" clip-path="url(#clipPath2)" cx="971" cy="624"/>
    </g>
    <g fill="white" text-rendering="geometricPrecision" shape-rendering="geometricPrecision" transform="matrix(1.9506,0,0,1.9506,-21.4564,-157.9974)" stroke="white">
      <ellipse rx="51.5" ry="49.25" clip-path="url(#clipPath2)" cx="971" cy="785.5" stroke="none"/>
    </g>
    <g text-rendering="geometricPrecision" stroke-miterlimit="1.45" shape-rendering="geometricPrecision" font-family="sans-serif" transform="matrix(1.9506,0,0,1.9506,-21.4564,-157.9974)" stroke-linecap="butt">
      <text x="928.6367" xml:space="preserve" y="790.2139" clip-path="url(#clipPath2)" stroke="none">ConnectionPool</text>
      <ellipse rx="51.5" fill="none" ry="49.25" clip-path="url(#clipPath2)" cx="971" cy="785.5"/>
    </g>
    <g fill="white" text-rendering="geometricPrecision" shape-rendering="geometricPrecision" transform="matrix(1.9506,0,0,1.9506,-21.4564,-157.9974)" stroke="white">
      <ellipse rx="51.5" ry="49.25" clip-path="url(#clipPath2)" cx="77.5107" cy="377.25" stroke="none"/>
    </g>
    <g text-rendering="geometricPrecision" stroke-miterlimit="1.45" shape-rendering="geometricPrecision" font-family="sans-serif" transform="matrix(1.9506,0,0,1.9506,-21.4564,-157.9974)" stroke-linecap="butt">
      <text x="48.1611" xml:space="preserve" y="381.9639" clip-path="url(#clipPath2)" stroke="none">Spring Bus</text>
      <ellipse clip-path="url(#clipPath2)" fill="none" rx="51.5" cx="77.5107" ry="49.25" cy="377.25" stroke-width="5"/>
    </g>
    <g fill="white" text-rendering="geometricPrecision" shape-rendering="geometricPrecision" transform="matrix(1.9506,0,0,1.9506,-21.4564,-157.9974)" stroke="white">
      <ellipse rx="51.5" ry="49.25" clip-path="url(#clipPath2)" cx="77.5107" cy="505.75" stroke="none"/>
    </g>
    <g text-rendering="geometricPrecision" stroke-miterlimit="1.45" shape-rendering="geometricPrecision" font-family="sans-serif" transform="matrix(1.9506,0,0,1.9506,-21.4564,-157.9974)" stroke-linecap="butt">
      <text x="37.8223" xml:space="preserve" y="510.4639" clip-path="url(#clipPath2)" stroke="none">Spring Context</text>
      <ellipse clip-path="url(#clipPath2)" fill="none" rx="51.5" cx="77.5107" ry="49.25" cy="505.75" stroke-width="5"/>
    </g>
    <g fill="white" text-rendering="geometricPrecision" shape-rendering="geometricPrecision" transform="matrix(1.9506,0,0,1.9506,-21.4564,-157.9974)" stroke="white">
      <ellipse rx="56.5" ry="56.25" clip-path="url(#clipPath2)" cx="307.5107" cy="498.75" stroke="none"/>
    </g>
    <g text-rendering="geometricPrecision" stroke-miterlimit="1.45" shape-rendering="geometricPrecision" font-family="sans-serif" transform="matrix(1.9506,0,0,1.9506,-21.4564,-157.9974)" stroke-linecap="butt">
      <text x="265.4873" xml:space="preserve" y="496.1133" clip-path="url(#clipPath2)" stroke="none">ConduitInitiator </text>
      <text x="256.499" xml:space="preserve" y="510.8145" clip-path="url(#clipPath2)" stroke="none">(Transport factory) </text>
      <ellipse rx="56.5" fill="none" ry="56.25" clip-path="url(#clipPath2)" cx="307.5107" cy="498.75"/>
      <text x="980.6631" xml:space="preserve" y="527.9639" clip-path="url(#clipPath2)" stroke="none">1</text>
      <text x="980.6631" xml:space="preserve" y="563.3145" clip-path="url(#clipPath2)" stroke="none">1</text>
      <text x="980.8262" xml:space="preserve" y="694.1133" clip-path="url(#clipPath2)" stroke="none">1</text>
      <text x="980.8262" xml:space="preserve" y="728.8145" clip-path="url(#clipPath2)" stroke="none">1</text>
      <text x="405.5" xml:space="preserve" y="134.3633" clip-path="url(#clipPath2)" stroke="none">1</text>
      <text x="446.1738" xml:space="preserve" y="134.3633" clip-path="url(#clipPath2)" stroke="none">1</text>
      <text x="562.1523" xml:space="preserve" y="135.6621" clip-path="url(#clipPath2)" stroke="none">1</text>
      <text x="904.8262" xml:space="preserve" y="135.6621" clip-path="url(#clipPath2)" stroke="none">1</text>
      <text x="731.6523" xml:space="preserve" y="296.8633" clip-path="url(#clipPath2)" stroke="none">1</text>
      <text x="921.5" xml:space="preserve" y="414.0645" clip-path="url(#clipPath2)" stroke="none">1</text>
    </g>
    <g fill="white" text-rendering="geometricPrecision" shape-rendering="geometricPrecision" transform="matrix(1.9506,0,0,1.9506,-21.4564,-157.9974)" stroke="white">
      <ellipse rx="51.5" ry="49.25" clip-path="url(#clipPath2)" cx="507.5" cy="505.75" stroke="none"/>
    </g>
    <g text-rendering="geometricPrecision" stroke-miterlimit="1.45" shape-rendering="geometricPrecision" font-family="sans-serif" transform="matrix(1.9506,0,0,1.9506,-21.4564,-157.9974)" stroke-linecap="butt">
      <text x="464.8086" xml:space="preserve" y="510.4639" clip-path="url(#clipPath2)" stroke="none">ConduitSelector</text>
      <ellipse rx="51.5" fill="none" ry="49.25" clip-path="url(#clipPath2)" cx="507.5" cy="505.75"/>
      <path fill="none" d="M397.5 146 L462.5 146" clip-path="url(#clipPath2)"/>
      <path fill="none" stroke-dasharray="6,2" d="M542.7695 173.9475 L636.9603 248.5841" clip-path="url(#clipPath2)"/>
      <path stroke-dasharray="6,2" d="M643.2305 253.5525 L636.9305 242.181 L636.1766 247.963 L630.72 250.0187 Z" clip-path="url(#clipPath2)" stroke="none"/>
      <text x="589.1937" xml:space="preserve" y="203.3341" clip-path="url(#clipPath2)" stroke="none">put(Conduit)</text>
      <path fill="none" d="M552.5 146 L919.5 146" clip-path="url(#clipPath2)"/>
      <path fill="none" stroke-dasharray="6,2" d="M924.6516 167.4708 L726.5905 259.2222" clip-path="url(#clipPath2)"/>
      <path stroke-dasharray="6,2" d="M719.3316 262.5849 L732.3217 262.0776 L727.4979 258.8018 L728.1183 253.004 Z" clip-path="url(#clipPath2)" stroke="none"/>
      <text x="801.2805" xml:space="preserve" y="247.1034" clip-path="url(#clipPath2)" stroke="none">get(Conduit)</text>
      <path fill="none" d="M717.1308 304.5794 L927.3228 430.1557" clip-path="url(#clipPath2)"/>
      <path fill="none" d="M971 195.25 L971 399" clip-path="url(#clipPath2)"/>
      <path d="M971 407 L976 395 L971 398 L966 395 Z" clip-path="url(#clipPath2)" stroke="none"/>
      <text x="996.3213" xml:space="preserve" y="298.4883" clip-path="url(#clipPath2)" stroke="none">prepare(msg),</text>
      <text x="1004.6621" xml:space="preserve" y="313.1895" clip-path="url(#clipPath2)" stroke="none">close(msg)</text>
      <path fill="none" d="M971 505.5 L971 574.75" clip-path="url(#clipPath2)"/>
      <path fill="none" d="M971 673.25 L971 736.25" clip-path="url(#clipPath2)"/>
      <path fill="none" stroke-dasharray="6,2" d="M467.8679 167.3143 L129.445 349.3195" clip-path="url(#clipPath2)"/>
      <path stroke-dasharray="6,2" d="M122.3993 353.1087 L135.3361 351.8285 L130.3257 348.8459 L130.5996 343.0214 Z" clip-path="url(#clipPath2)" stroke="none"/>
      <text x="268.6023" xml:space="preserve" y="295.683" clip-path="url(#clipPath2)" stroke="none">get(ConduitSelector)</text>
      <path fill="none" d="M77.5107 426.5 L77.5107 456.5" clip-path="url(#clipPath2)"/>
      <path fill="none" d="M122.5902 401.0637 L250.5278 468.6481" clip-path="url(#clipPath2)"/>
      <path d="M257.6014 472.3849 L249.3264 462.3587 L249.6436 468.181 L244.6555 471.2008 Z" clip-path="url(#clipPath2)" stroke="none"/>
      <text x="145.3131" xml:space="preserve" y="467.0407" clip-path="url(#clipPath2)" stroke="none">getConduit</text>
      <path fill="none" stroke-dasharray="6,2" d="M507.5 191 L507.5 448.5" clip-path="url(#clipPath2)"/>
      <path stroke-dasharray="6,2" d="M507.5 456.5 L512.5 444.5 L507.5 447.5 L502.5 444.5 Z" clip-path="url(#clipPath2)" stroke="none"/>
      <text x="515.8145" xml:space="preserve" y="327.1996" clip-path="url(#clipPath2)" stroke="none">selectConduit(msg)</text>
    </g>
  </g>
</svg>
